# xmcd
#
# Track frame offsets:
# 150
# 16620
# 32136
# 47704
# 62471
# 76133
# 93884
# 109805
# 123559
# 139472
# 162396
# 180887
# 202194
# 223427
#
# Disc length: 3315 seconds
#
# Revision: 0
# Processed by: cddbd v1.5PL3 Copyright (c) Steve Scherf et al.
# Submitted via: Audion 3.0.2 (http://www.panic.com/audion/)
#
DISCID=c00cf10e
DTITLE=Mixed - Ljud CD #7
DYEAR=1900
DGENRE=
TTITLE0=Forever And Forever
TTITLE1=Calling America
TTITLE2=Daddy Cool
TTITLE3=The Lunatics..
TTITLE4=Brylcreme, Stålkam and Gällivare
TTITLE5=En Stor Stark
TTITLE6=Folköl and Dunka-Dunka
TTITLE7=Kitchen At Parties
TTITLE8=Moonlight Shadow
TTITLE9=Space Oddity
TTITLE10=Starman
TTITLE11=Hands Up
TTITLE12=Y.M.C.A.
TTITLE13=Var Kommer barnen In
EXTD=
EXTT0=
EXTT1=
EXTT2=
EXTT3=
EXTT4=
EXTT5=
EXTT6=
EXTT7=
EXTT8=
EXTT9=
EXTT10=
EXTT11=
EXTT12=
EXTT13=
PLAYORDER=
